# xmcd
#
# Track frame offsets:
#	150
#	15628
#	29189
#	54109
#	71511
#	89731
#	98468
#	118802
#	138158
#	153074
#
# Disc length: 2259 seconds
#
# Revision: 1
# Processed by: cddbd v1.4PL0 Copyright (c) Steve Scherf et al.
# Submitted via: audiograbber 1.82.02
#
DISCID=7a08d10a
DTITLE=Lightning Red and Thunder Blues - Tortured Mind
DYEAR=2001
DGENRE=Blues
TTITLE0=Dynamite
TTITLE1=Hard To Have The Blues
TTITLE2=Tortured Mind
TTITLE3=Houston Blues
TTITLE4=Shoulda Listened
TTITLE5=Thunder And Lightning
TTITLE6=Headin' For The Country
TTITLE7=Bitta Man
TTITLE8=South Austin Shuffle
TTITLE9=Back To Texas
EXTD=
EXTT0=
EXTT1=
EXTT2=
EXTT3=
EXTT4=
EXTT5=
EXTT6=
EXTT7=
EXTT8=
EXTT9=
PLAYORDER=
